<?xml version="1.0" encoding="utf-8"?>
<!-- Generator: Adobe Illustrator 23.1.1, SVG Export Plug-In . SVG Version: 6.00 Build 0)  -->
<svg version="1.1" id="Layer_1" xmlns="http://www.w3.org/2000/svg" xmlns:xlink="http://www.w3.org/1999/xlink" x="0px" y="0px"
viewBox="0 0 247 418" style="enable-background:new 0 0 247 418;" xml:space="preserve">
<g>
<g>
<path d="M5.35,90.69c-1.04,10.1-1.58,20.23-1.56,30.35c-0.32,10.1,0.11,20.22,0.68,30.34c0.56,10.12,1.33,20.24,1.72,30.42
c0.37,10.21,0.03,20.34-0.18,30.5l-2.1,60.86c-0.27,10.14-0.33,20.26,0.06,30.38c0.06,10.13,0.42,20.27,1.39,30.38
c-1.63-10.03-2.66-20.15-3.39-30.31c-0.4-10.17-0.33-20.35-0.06-30.5L4,212.25c0.22-10.13,0.55-20.3,0.18-30.38
c-0.39-10.11-1.16-20.24-1.72-30.38c-0.57-10.14-0.99-20.32-0.69-30.51C2.41,110.81,3.48,100.67,5.35,90.69z"/>
<path d="M4.34,334.08c-1.47-9.06-2.58-19-3.4-30.4c-0.36-9.09-0.38-18.81-0.07-30.6l2.2-65.26c0.2-8.52,0.4-17.32,0.09-25.91
c-0.25-6.47-0.66-13.07-1.06-19.45c-0.23-3.64-0.45-7.27-0.66-10.91c-0.54-9.67-1-20.07-0.69-30.6c0.7-11.35,1.88-21.3,3.59-30.45
l2.03,0.29C5.32,101,4.8,111.17,4.82,121.03c-0.32,10.24,0.14,20.61,0.67,30.29c0.2,3.62,0.43,7.24,0.65,10.87
c0.4,6.4,0.81,13.02,1.07,19.57c0.32,8.74,0.12,17.56-0.08,26.09l-0.1,4.48l-2.1,60.87c-0.31,11.7-0.29,21.33,0.06,30.3
c0.07,11.36,0.52,21.27,1.38,30.32L4.34,334.08z"/>
</g>
<g>
<path d="M10.7,90.69c0.11-6.59,1.85-13.08,4.28-19.22c2.45-6.15,5.76-11.97,9.74-17.29c8.19-10.47,18.67-19.08,30.3-25.38
c11.58-6.42,23.9-11.34,36.48-15.26c12.6-3.91,25.46-6.91,38.47-9.04c13.02-2.09,26.18-3.47,39.47-2.76
c13.21,1.1,26.41,5.35,37.04,13.54c5.29,4.07,9.91,9.07,13.35,14.84c3.42,5.75,5.71,12.29,6.1,19.02
c0.23,6.71-0.7,13.29-1.91,19.76c-1.26,6.47-2.88,12.86-4.85,19.12c1.65-6.36,2.94-12.81,3.87-19.29
c0.88-6.48,1.45-13.04,0.9-19.47c-0.82-12.88-8.47-24.63-18.67-32.4C195,8.93,182.19,4.79,169.3,3.72
c-12.97-0.69-26.11,0.67-39,2.74c-12.92,2.11-25.7,5.09-38.2,8.98c-12.48,3.9-24.7,8.77-36.1,15.1
C44.54,36.75,34.31,45.16,26.31,55.4c-4.11,5.02-7.66,10.54-10.35,16.48C13.3,77.81,11.22,84.12,10.7,90.69z"/>
<path d="M11.72,90.77l-2.05-0.1c0.1-6.03,1.52-12.44,4.35-19.58c2.45-6.15,5.77-12.05,9.88-17.53
c8.06-10.3,18.65-19.17,30.64-25.67c10.81-5.99,22.8-11.01,36.67-15.34c12.45-3.87,25.44-6.92,38.61-9.08
c15.82-2.53,28.06-3.39,39.7-2.77c14.5,1.2,27.5,5.96,37.61,13.76c5.61,4.31,10.19,9.4,13.61,15.13
c3.71,6.24,5.87,12.98,6.24,19.49c0.25,7.26-0.83,14.19-1.93,20.01c-1.27,6.54-2.92,13.01-4.88,19.24l-1.97-0.57
c1.62-6.22,2.91-12.67,3.84-19.18c0.73-5.34,1.48-12.35,0.89-19.23c-0.75-11.69-7.58-23.52-18.27-31.68
c-9.49-7.32-21.75-11.79-35.43-12.93c-11.16-0.59-23.48,0.28-38.76,2.73c-12.98,2.12-25.79,5.13-38.05,8.94
c-13.59,4.24-25.34,9.15-35.91,15.02c-11.54,6.26-21.7,14.76-29.38,24.6c-4.24,5.17-7.67,10.64-10.23,16.27
C13.86,79.05,12.17,85.09,11.72,90.77z"/>
</g>
<g>
<path d="M245.91,77.32c-6.24,11.67-10.61,24.43-11.87,37.48c-0.74,6.48-0.44,13.11-0.32,19.73c0.17,6.62,0.44,13.24,0.72,19.87
c0.57,13.25,1.26,26.5,1.61,39.78c0.14,6.61,0.36,13.34-0.27,19.98c-0.51,6.63-1.17,13.23-1.8,19.84
c-2.58,26.4-5.02,52.81-5.88,79.29c-0.43,13.23-0.38,26.49,0.01,39.72c0.03,6.62,0.17,13.25,0.41,19.87
c0.28,6.62,0.51,13.26,1.36,19.83c-1.18-6.53-1.74-13.16-2.36-19.77c-0.57-6.62-1.05-13.24-1.41-19.88
c-0.39-13.28-0.44-26.57-0.01-39.85c0.86-26.56,3.31-53.02,5.89-79.42c0.63-6.6,1.29-13.2,1.8-19.79
c0.62-6.58,0.41-13.13,0.27-19.78c-0.34-13.24-1.03-26.49-1.61-39.74c-0.29-6.63-0.55-13.26-0.73-19.9
c-0.09-6.62-0.47-13.3,0.32-20.02c0.88-6.67,2.74-13.14,5.06-19.38C239.45,88.95,242.36,82.93,245.91,77.32z"/>
<path d="M228.86,392.9c-1.09-6.04-1.67-12.24-2.22-18.24l-0.15-1.62c-0.59-6.8-1.07-13.5-1.41-19.92
c-0.42-14.21-0.42-27.27-0.01-39.94c0.86-26.4,3.28-52.66,5.89-79.48l0.27-2.77c0.54-5.58,1.09-11.34,1.53-17
c0.57-6,0.44-11.86,0.3-18.06l-0.04-1.62c-0.25-9.87-0.71-19.93-1.15-29.65c-0.15-3.35-0.3-6.71-0.45-10.07
c-0.27-6.28-0.55-13.05-0.73-19.92c-0.02-1.29-0.05-2.58-0.08-3.86c-0.12-5.32-0.24-10.81,0.41-16.3
c0.8-6.11,2.48-12.52,5.12-19.62c2.45-6.52,5.44-12.6,8.9-18.06l1.77,1.03c-6.62,12.36-10.57,24.84-11.75,37.1
c-0.63,5.5-0.5,11.23-0.37,16.77l0.06,2.84c0.18,6.94,0.47,13.93,0.72,19.84c0.14,3.34,0.3,6.68,0.45,10.02
c0.44,9.75,0.9,19.83,1.16,29.77l0.03,1.44c0.14,6.12,0.28,12.44-0.31,18.67c-0.44,5.63-0.99,11.34-1.52,16.87L235,234.1
c-2.61,26.76-5.03,52.96-5.88,79.22c-0.41,12.58-0.41,25.55,0.01,39.66c0.02,6.41,0.16,13.08,0.41,19.87l0.06,1.55
c0.25,5.98,0.51,12.17,1.29,18.19L228.86,392.9z"/>
</g>
<g>
<path d="M211.16,349.95c3.84,12.25,7.31,24.62,10.04,37.22c0.6,3.17,1.1,6.36,1.41,9.61c0.1,0.8,0.15,1.63,0.17,2.45
c0.04,0.82,0.09,1.64,0.01,2.52c-0.13,1.73-0.61,3.46-1.47,4.99c-1.77,3.08-4.75,5.1-7.77,6.43c-3.05,1.37-6.27,2.12-9.47,2.7
c-6.44,1.07-12.95,1.19-19.4,0.98c-6.46-0.24-12.88-0.88-19.26-1.79c-12.72-1.83-25.39-4.06-37.97-6.71
c-12.58-2.67-25.07-5.75-37.38-9.51c-12.27-3.83-24.51-8.06-35.95-14.14c-5.74-2.95-11.26-6.54-15.94-11.2
c-4.57-4.74-8.02-10.31-10.99-16.07c-5.54-11.73-9.05-24.23-11.15-36.89c2.75,12.52,6.91,24.78,12.94,35.98
c2.92,5.61,6.28,11.1,10.64,15.59c4.41,4.39,9.79,7.93,15.44,10.82c11.24,5.98,23.4,10.19,35.6,13.99
c12.24,3.73,24.68,6.81,37.21,9.47c12.53,2.65,25.16,4.87,37.84,6.69c6.32,0.9,12.68,1.54,19.05,1.77
c6.36,0.21,12.76,0.09,18.99-0.95c3.1-0.55,6.18-1.28,8.99-2.55c2.81-1.23,5.39-3.05,6.84-5.59c0.71-1.27,1.11-2.69,1.22-4.16
c0.07-0.72,0.03-1.51-0.01-2.29c-0.02-0.78-0.07-1.56-0.17-2.35c-0.26-3.15-0.89-6.28-1.39-9.43
C217.15,374.93,214.2,362.42,211.16,349.95z"/>
<path d="M189.76,417.97c-1.62,0-3.32-0.03-5.11-0.09c-6.16-0.23-12.5-0.81-19.38-1.8c-12.88-1.85-25.68-4.12-38.04-6.72
c-13.72-2.91-25.97-6.03-37.47-9.53c-11.8-3.68-24.34-7.95-36.13-14.21c-6.61-3.39-11.9-7.12-16.18-11.38
c-4.06-4.22-7.61-9.4-11.17-16.33c-5.21-11.02-8.99-23.53-11.25-37.19l2.01-0.39c2.91,13.28,7.23,25.29,12.84,35.71
c3.56,6.84,6.79,11.57,10.47,15.36c3.91,3.89,9.02,7.47,15.17,10.62c11.51,6.12,23.83,10.31,35.43,13.92
c11.38,3.47,23.52,6.56,37.12,9.44c12.25,2.59,24.96,4.84,37.77,6.68c6.73,0.96,12.93,1.54,18.94,1.76
c7.48,0.25,13.45-0.05,18.78-0.94c2.5-0.44,5.76-1.13,8.74-2.47c2.99-1.31,5.19-3.1,6.37-5.17c0.62-1.1,0.98-2.36,1.08-3.73
c0.06-0.63,0.03-1.3,0-2.01c-0.03-0.91-0.07-1.66-0.17-2.41c-0.19-2.32-0.59-4.66-0.98-6.92c-0.14-0.83-0.28-1.65-0.41-2.48
c-2.08-12.64-4.99-24.95-8.05-37.51l1.98-0.55c4.3,13.73,7.6,25.93,10.07,37.31c0.71,3.74,1.16,6.82,1.43,9.73
c0.1,0.81,0.15,1.66,0.18,2.52c0.05,0.96,0.09,1.76,0,2.65c-0.14,1.91-0.7,3.79-1.6,5.4c-1.65,2.87-4.42,5.18-8.25,6.87
c-3.37,1.52-6.96,2.28-9.71,2.77C199.86,417.63,195.26,417.97,189.76,417.97z"/>
</g>
<g>
<path d="M121.59,236.62c0.57-0.85,1.31-1.48,2.2-1.79c0.88-0.35,1.95-0.41,3.09-0.02c1.14,0.41,2.13,1.56,2.3,2.67
c0.24,1.1-0.14,2.09-0.78,2.88l-0.04,0.05c-0.03,0.04-0.09,0.04-0.12,0.01c-0.02-0.02-0.03-0.04-0.03-0.07
c-0.01-1.51-0.56-3.22-2.04-3.68c-1.4-0.53-3.03-0.25-4.51,0.13c-0.05,0.01-0.1-0.02-0.11-0.06c-0.01-0.03,0-0.05,0.01-0.07
L121.59,236.62z"/>
<path d="M127.96,241.52l-0.72-0.58l-0.07-0.49c-0.01-1.19-0.36-2.48-1.32-2.79c-1.2-0.46-2.67-0.18-3.95,0.15l-0.99,0.25
l-0.48-1.51l0.28-0.46l0.8,0.48l0-0.01l-0.77-0.52c0.72-1.08,1.64-1.82,2.72-2.19c1.16-0.45,2.47-0.46,3.76-0.02
c1.52,0.55,2.76,2.02,2.98,3.5c0.26,1.22-0.09,2.55-1,3.67l-0.27,0.33L127.96,241.52z"/>
</g>
<g>
<path d="M96.23,154.83c3.43,3.04,6.57,6.43,8.99,10.55c1.3,2.06,1.47,5.05,0.57,7.37c-0.87,2.33-2.14,4.23-3.13,6.23
c-0.94,1.8-1.26,4.08-1.6,6.28c-0.3,2.23-0.51,4.48-0.67,6.74c-0.3,4.52-0.45,9.08-0.48,13.61l0,0.51l-0.44,0.32
c-4.13,2.98-7.8,6.93-10.27,11.41c-2.5,4.48-3.52,9.73-2.57,14.75c0.46,2.53,1.3,4.96,2.62,7.07c1.32,2.1,3.23,3.8,5.53,4.65
c4.5,2.04,10.2,1.27,14.83-1.29c-2.11,1.64-4.59,2.86-7.27,3.48c-2.66,0.61-5.6,0.72-8.32-0.29c-2.67-1.08-4.97-3.06-6.46-5.46
c-1.5-2.4-2.41-5.09-2.9-7.79c-1.05-5.47,0.09-11.28,2.78-16.07c2.69-4.83,6.43-8.88,10.92-12.12l-0.45,0.83
c0.02-4.6,0.18-9.17,0.48-13.75c0.17-2.29,0.37-4.59,0.69-6.88c0.37-2.28,0.64-4.63,1.8-6.92c1.04-2.08,2.31-4.03,3.02-5.99
c0.35-0.98,0.53-1.96,0.43-2.94c-0.12-0.98-0.43-1.95-0.81-2.95C101.84,162.12,99.08,158.38,96.23,154.83z"/>
<path d="M98.43,248.01c-1.7,0-3.3-0.27-4.77-0.82c-2.87-1.16-5.34-3.24-6.98-5.89c-1.46-2.34-2.48-5.08-3.04-8.15
c-1.05-5.49,0-11.6,2.89-16.76c2.52-4.52,5.99-8.49,10.35-11.81c0.04-4.35,0.2-8.65,0.48-12.8c0.19-2.68,0.41-4.89,0.69-6.95
l0.12-0.73c0.33-2.12,0.67-4.31,1.79-6.51c0.37-0.74,0.77-1.47,1.17-2.19c0.71-1.28,1.37-2.49,1.81-3.69
c0.33-0.92,0.45-1.74,0.37-2.48c-0.11-0.9-0.42-1.83-0.75-2.7c-1.64-3.98-4.39-7.67-7.12-11.07l1.48-1.41
c4.07,3.62,6.99,7.05,9.19,10.8c1.42,2.25,1.68,5.58,0.64,8.26c-0.59,1.58-1.35,2.95-2.08,4.28c-0.37,0.68-0.75,1.35-1.08,2.03
c-0.83,1.59-1.15,3.67-1.46,5.68l-0.05,0.31c-0.27,1.96-0.48,4.08-0.66,6.66c-0.21,3.1-0.35,6.29-0.42,9.53l0.37-0.26l-0.37,0.7
c-0.03,1.19-0.04,2.38-0.05,3.58l0,1.03l-0.87,0.63c-4.2,3.04-7.65,6.87-9.97,11.08c-2.47,4.42-3.34,9.41-2.46,14.06
c0.46,2.56,1.3,4.82,2.48,6.72c1.25,1.99,3.04,3.49,5.01,4.22c4.01,1.82,9.33,1.33,13.98-1.23l1.13,1.71
c-2.26,1.76-4.91,3.03-7.67,3.67C101.12,247.85,99.74,248.01,98.43,248.01z M104.99,167.36c0.04,0.14,0.08,0.29,0.12,0.43
C105.07,167.64,105.03,167.5,104.99,167.36z"/>
</g>
<g>
<path d="M18.81,176.23c-0.06,2.97-0.22,5.9-0.16,8.83c-0.01,2.83,0,6,0.83,8.21l0.15,0.35c0.06,0.04,0.11,0.08,0.14,0.14
c0.06,0.13,0.19,0.14,0.36,0.25c0.42,0.17,1.01,0.31,1.66,0.37c1.29,0.14,2.7,0.1,4.11-0.01c2.82-0.19,5.7-0.74,8.51-1.17
l-1.29,1.07c0.93-2.26,1.78-4.65,2.47-7.01c0.62-2.32,1.28-4.88,1.13-6.8c-0.05-0.17-0.05-0.47-0.13-0.51
c-0.03-0.05-0.04-0.11-0.06-0.18l-0.23-0.21c-0.31-0.3-0.82-0.56-1.33-0.8c-1.05-0.47-2.25-0.76-3.45-1.09
c-2.41-0.64-4.94-0.97-7.46-1.36l-0.02,0c-0.05-0.01-0.09-0.06-0.08-0.11c0.01-0.05,0.05-0.08,0.1-0.08
c2.55,0.03,5.1,0.18,7.62,0.58c1.26,0.21,2.52,0.46,3.73,0.9c1.16,0.41,2.53,1.14,2.76,2.54c0.42,2.6-0.26,5.13-0.86,7.6
c-0.66,2.47-1.47,4.88-2.38,7.27l-0.04,0.1l-0.1,0.02c-2.9,0.57-5.83,0.95-8.79,1.12c-1.48,0.08-2.96,0.09-4.44-0.1
c-0.74-0.09-1.48-0.26-2.18-0.57c-0.68-0.34-1.27-0.99-1.43-1.74c-0.82-2.91-0.55-5.91-0.39-8.84c0.22-2.94,0.59-5.87,1.06-8.78
c0.01-0.05,0.06-0.09,0.11-0.08c0.05,0.01,0.08,0.05,0.08,0.1L18.81,176.23z"/>
<path d="M30.61,197.7l0.38-0.92c-1.67,0.23-3.31,0.38-4.92,0.48c-1.82,0.1-3.29,0.06-4.63-0.11c-0.92-0.11-1.73-0.33-2.46-0.65
c-1.04-0.51-1.8-1.45-2.02-2.46c-0.78-2.76-0.62-5.6-0.46-8.35l0.04-0.76c0.21-2.8,0.56-5.7,1.07-8.89l0.16-1l2.01,0.19l0.06,1.01
l-0.65,0l0.02,0.01l0.63,0.01c-0.02,0.94-0.05,1.88-0.08,2.82c-0.06,1.96-0.12,4-0.08,5.97c-0.01,2.45-0.02,5.77,0.76,7.87
l0.07,0.13c0.02,0.01,0.05,0.03,0.07,0.04c0.37,0.13,0.83,0.23,1.3,0.27c1.11,0.12,2.39,0.11,3.93-0.01
c2.07-0.14,4.2-0.48,6.27-0.82c0.22-0.04,0.44-0.07,0.66-0.11c0.72-1.87,1.34-3.69,1.85-5.44c0.51-1.91,1.22-4.54,1.1-6.36
c-0.02-0.07-0.03-0.15-0.04-0.23l-0.05-0.07c-0.14-0.13-0.42-0.33-1.07-0.63c-0.79-0.36-1.7-0.6-2.67-0.86l-0.63-0.17
c-1.95-0.52-3.97-0.83-6.11-1.15l-2.24-0.34l0.17-2l0.99-0.08c2.92,0.03,5.47,0.23,7.78,0.59c1.17,0.19,2.54,0.45,3.92,0.95
c2.03,0.71,3.18,1.84,3.42,3.35c0.43,2.63-0.17,5.12-0.76,7.53l-0.11,0.46c-0.33,1.25-0.71,2.5-1.13,3.78l0.7-0.11l-0.93,0.77
c-0.33,0.96-0.68,1.95-1.07,2.95l-0.2,0.53l-0.59,0.21c-1.09,0.21-2.17,0.4-3.24,0.56L30.61,197.7z M20.66,193.25l0.03,0.05
C20.68,193.27,20.67,193.26,20.66,193.25L20.66,193.25z"/>
</g>
<g>
<path d="M195.05,181.49c1-0.91,2.31-1.26,3.56-1.57c1.26-0.3,2.55-0.53,3.85-0.66c2.61-0.24,5.17-0.57,8.04,0.29
c0.36,0.13,0.76,0.32,1.17,0.71c0.2,0.19,0.4,0.49,0.51,0.84c0.11,0.45,0.08,0.61,0.09,0.79c0.02,0.75-0.03,1.4-0.08,2.08
c-0.13,1.34-0.27,2.67-0.56,3.98c-0.56,2.62-1.37,5.21-2.91,7.7c-0.78,1.2-1.85,2.48-3.59,3.24c-0.77,0.4-2.1,0.4-2.56,0.36
l-1.95-0.11c-1.31-0.09-2.63-0.26-3.97-0.5c-1.33-0.3-2.74-0.5-4.12-1.64c-0.33-0.29-0.63-0.72-0.77-1.2
c-0.15-0.47-0.11-0.99-0.09-1.25l0.18-1.95c0.13-1.3,0.34-2.59,0.55-3.87c0.2-1.29,0.49-2.56,0.86-3.8
C193.63,183.7,194.13,182.45,195.05,181.49z M195.2,181.63c-1.67,1.94-2.03,4.66-2.34,7.16c-0.14,1.28-0.2,2.56-0.24,3.84
l-0.02,1.93c-0.04,0.65,0.13,1.22,0.63,1.6c0.98,0.74,2.32,0.92,3.57,1.07c1.27,0.13,2.56,0.16,3.84,0.18
c1.27-0.04,2.63,0.17,3.74-0.29c1.12-0.5,2-1.48,2.66-2.56c1.36-2.14,2.22-4.6,2.9-7.06c0.34-1.24,0.61-2.49,0.83-3.75
c0.12-1.21,0.74-2.78-0.72-3.18c-2.36-0.91-5.02-0.91-7.56-0.83c-1.28,0.06-2.56,0.21-3.81,0.46
C197.44,180.47,196.13,180.8,195.2,181.63z"/>
<path d="M203.06,200.3c-0.35,0-0.58-0.02-0.59-0.02l-1.92-0.1c-1.35-0.09-2.72-0.27-4.1-0.51l-0.46-0.1
c-1.27-0.27-2.71-0.58-4.13-1.76c-0.53-0.47-0.92-1.08-1.1-1.69c-0.15-0.46-0.19-1.02-0.12-1.65l0.18-1.93
c0.13-1.31,0.34-2.61,0.55-3.9c0.21-1.35,0.51-2.68,0.9-3.98c0.36-1.18,0.91-2.69,2.04-3.86l0.05-0.05c1.21-1.11,2.76-1.5,4-1.81
c1.44-0.34,2.75-0.56,3.99-0.68l0.56-0.05c2.47-0.24,5.03-0.48,7.88,0.38c0.48,0.18,1.04,0.42,1.59,0.95
c0.35,0.33,0.64,0.8,0.78,1.29c0.11,0.48,0.12,0.73,0.13,0.95c0.02,0.89-0.03,1.57-0.09,2.28c-0.12,1.32-0.27,2.72-0.58,4.12
c-0.71,3.29-1.65,5.77-3.04,8.02c-0.74,1.14-1.95,2.72-4.05,3.64C204.78,200.23,203.71,200.3,203.06,200.3z M201.02,196.38
c0.22,0,0.45,0.01,0.68,0.01c0.86,0.02,1.67,0.04,2.28-0.22c0.98-0.44,1.73-1.41,2.17-2.14c1.42-2.23,2.23-4.8,2.79-6.8
c0.31-1.16,0.59-2.39,0.8-3.66c0.01-0.18,0.06-0.44,0.1-0.71c0.06-0.35,0.18-1.08,0.07-1.23l-0.26-0.1
c-2.19-0.85-4.75-0.84-7.15-0.76c-1.31,0.07-2.51,0.21-3.64,0.44c-1.12,0.25-2.21,0.54-2.95,1.16c-1.44,1.72-1.75,4.18-2.06,6.57
c-0.12,1.13-0.19,2.36-0.23,3.74l-0.02,1.91c-0.03,0.58,0.15,0.72,0.22,0.77c0.78,0.59,2,0.74,3.07,0.87
c1.23,0.13,2.52,0.16,3.73,0.17C200.76,196.38,200.89,196.38,201.02,196.38z"/>
</g>
<g>
<path d="M173.65,141.44c0.7-2.46,1.52-4.91,3.1-7.09c0.44-0.52,0.92-1.07,1.71-1.38c0.22-0.05,0.43-0.1,0.66-0.12
c0.25,0.04,0.52,0.08,0.74,0.17c0.45,0.26,0.72,0.61,0.92,0.97c0.65,1.41,0.68,2.76,0.63,4.1c-0.05,0.67-0.12,1.34-0.27,2.01
c-0.06,0.33-0.18,0.69-0.3,1.03c-0.2,0.34-0.21,0.77-1,1.21c-0.55,0.23-0.95,0-1.31-0.26c-0.16-0.18-0.28-0.34-0.41-0.51
c-0.26-0.33-0.41-0.8-0.49-1.22c-0.16-0.9,0.15-1.67,0.44-2.36c1.44-2.59,3.87-4.06,6.45-4.93c1.29-0.34,2.8-0.64,4.29,0.11
c1.33,0.82,2.05,2.12,2.46,3.4c0.35,1.3,0.59,2.68,0.07,4.07c-0.22,0.69-1.04,1.41-1.94,1.12c-0.96-0.36-0.96-1.37-0.93-1.98
c0.39-2.68,1.93-5,4.09-6.53c1.1-0.73,2.39-1.25,3.75-1.31c1.35-0.16,2.84,0.32,3.88,1.26c1.06,0.93,1.76,2.17,2.2,3.45
c0.42,1.3,0.66,2.64,0.46,4.11c-0.06,0.37-0.15,0.76-0.42,1.2c-0.14,0.21-0.34,0.48-0.72,0.63c-0.38,0.17-0.8,0.11-1.1-0.01
c-0.96-0.45-1.41-1.34-1.54-2.25c-0.04-1.76,0.83-2.98,1.65-4.08c1.76-2.12,4.11-3.74,6.97-4.29c1.43-0.25,3.07,0.03,4.35,0.79
c1.26,0.72,2.32,1.76,3.08,2.96c0.76,1.21,1.27,2.54,1.44,4c0.05,0.74,0.17,1.47-0.4,2.52c-0.19,0.25-0.5,0.6-0.9,0.69
c-0.21,0.05-0.44,0.08-0.65,0.07c-0.17-0.03-0.3-0.08-0.45-0.14c-0.33-0.11-0.5-0.26-0.66-0.4c-0.18-0.19-0.3-0.15-0.57-0.64
c-0.4-0.86-0.1-1.32,0.01-1.72c0.16-0.38,0.34-0.71,0.54-1c0.39-0.6,0.82-1.11,1.27-1.61c0.9-0.99,1.88-1.87,2.93-2.67
c1.07-0.78,2.17-1.54,3.6-1.9c0.72-0.19,1.53-0.16,2.26,0.16c0.73,0.32,1.29,0.97,1.54,1.67c0.51,1.41,0.18,2.86-0.45,4.03
c-0.63,1.18-1.6,2.13-2.71,2.78c-0.05,0.03-0.11,0.01-0.14-0.03c-0.03-0.04-0.01-0.1,0.03-0.13c2-1.44,3.24-4.19,2.34-6.25
c-0.45-1-1.51-1.31-2.52-0.95c-1.03,0.33-2.04,1.12-2.97,1.86c-0.94,0.78-1.81,1.65-2.58,2.58c-0.38,0.46-0.75,0.95-1.03,1.43
c-0.15,0.24-0.26,0.49-0.33,0.69c-0.09,0.18-0.02,0.41-0.09,0.11c-0.19-0.2,0.3,0.25,0.22,0.13c0,0,0.01,0.02,0,0.02
c-0.05-0.03-0.12-0.03-0.18,0c-0.09,0.04-0.18,0.09-0.17,0.12c0.06-0.08,0.15-0.7,0.06-1.2c-0.13-1.06-0.55-2.17-1.16-3.1
c-0.61-0.94-1.43-1.72-2.38-2.25c-0.93-0.51-1.91-0.67-3-0.55c-2.15,0.33-4.33,1.67-5.82,3.42c-0.74,0.86-1.33,1.93-1.34,2.76
c0.03,0.33,0.24,0.69,0.43,0.82c-0.01-0.06-0.35,0.11-0.2,0.02c0.07-0.1,0.17-0.33,0.22-0.59c0.33-2.14-0.24-4.84-1.83-6.47
c-1.58-1.67-4.52-1.5-6.5-0.16c-2,1.31-3.58,3.61-3.78,5.99c-0.04,0.57,0.11,1.18,0.46,1.22c0.38,0.1,0.8-0.18,0.94-0.7
c0.32-1.04,0.04-2.33-0.36-3.41c-0.43-1.09-1.16-2.08-2.06-2.53c-0.85-0.39-2.05-0.12-3.14,0.23c-2.19,0.73-4.29,2.29-5.38,4.14
c-0.2,0.46-0.4,0.94-0.32,1.32c0.04,0.19,0.07,0.37,0.2,0.53l0.17,0.24c-0.08-0.11-0.21-0.11-0.44-0.07
c-0.18,0.14-0.05,0-0.05,0.01l0.15-0.29c0.09-0.26,0.19-0.5,0.25-0.79c0.15-0.56,0.23-1.16,0.29-1.75
c0.08-1.17,0.09-2.46-0.28-3.4c-0.24-0.46-0.33-0.58-0.78-0.48c-0.41,0.12-0.87,0.5-1.27,0.92c-1.56,1.83-2.69,4.18-3.71,6.48
c-0.02,0.05-0.08,0.08-0.13,0.06C173.66,141.54,173.64,141.49,173.65,141.44z"/>
<path d="M214.66,144.02c-0.02,0-0.04,0-0.07,0c-0.37-0.05-0.55-0.11-0.74-0.18c-0.55-0.19-0.84-0.44-1.03-0.6
c-0.3-0.23-0.52-0.43-0.8-0.92c-0.54-1.14-0.28-1.91-0.14-2.32l0.1-0.29c0.19-0.46,0.4-0.84,0.64-1.19
c0.09-0.14,0.19-0.29,0.29-0.42c-0.12-0.24-0.25-0.48-0.4-0.7c-0.53-0.81-1.23-1.47-2.02-1.91c-0.71-0.4-1.47-0.53-2.38-0.43
c-1.5,0.23-3.14,1.1-4.45,2.33c0.3,1.24,0.36,2.38,0.2,3.52c-0.08,0.49-0.2,1-0.55,1.58c-0.23,0.35-0.58,0.8-1.22,1.06
c-0.55,0.24-1.23,0.24-1.86-0.01c-1.23-0.58-1.98-1.65-2.18-3.06c-0.05-2.04,0.84-3.46,1.57-4.46c-0.24-0.48-0.53-0.92-0.9-1.29
c-1.27-1.34-3.68-1.06-5.19-0.03c-0.52,0.34-1,0.74-1.41,1.19c0.04,0.12,0.09,0.25,0.13,0.38c0.39,1.43,0.68,3.07,0.06,4.75
c-0.2,0.64-0.72,1.25-1.37,1.58c-0.59,0.3-1.24,0.36-1.85,0.16c-1.19-0.44-1.72-1.45-1.63-3.02c0.18-1.25,0.58-2.45,1.18-3.55
c-0.28-0.38-0.61-0.68-0.94-0.84c-0.6-0.27-1.93,0.15-2.37,0.29c-1.02,0.34-2.02,0.89-2.87,1.55c0,0.33-0.01,0.65-0.02,0.95
c-0.05,0.68-0.12,1.44-0.3,2.21c-0.06,0.31-0.18,0.7-0.31,1.08l-0.1,0.23c-0.22,0.49-0.48,1.09-1.4,1.6
c-1.24,0.53-2.12-0.13-2.41-0.34c-0.3-0.3-0.43-0.47-0.56-0.64c-0.46-0.59-0.65-1.26-0.74-1.73c-0.22-1.22,0.2-2.21,0.5-2.94
c0.45-0.82,1-1.57,1.65-2.23c0-0.02-0.01-0.04-0.01-0.05c-0.12,0.1-0.27,0.23-0.45,0.42c-1.47,1.72-2.59,4.1-3.52,6.19l-0.4,0.89
l-1.89-0.62l0.17-1.03c0.66-2.33,1.51-5.01,3.25-7.42c0.5-0.59,1.11-1.31,2.17-1.73l0.22-0.06c0.24-0.05,0.48-0.11,0.73-0.13
l0.12-0.01l0.12,0.02c0.3,0.05,0.65,0.1,0.99,0.24c0.58,0.32,0.97,0.7,1.28,1.18c0.81-0.45,1.69-0.84,2.65-1.16
c1.14-0.3,3.13-0.82,5.08,0.17c0.54,0.33,1.02,0.73,1.44,1.2c0.39-0.37,0.81-0.72,1.26-1.04c1.39-0.93,2.87-1.44,4.3-1.5
c1.56-0.19,3.35,0.39,4.61,1.52c0.39,0.34,0.75,0.73,1.07,1.15c1.66-1.36,3.54-2.25,5.55-2.63c1.7-0.3,3.6,0.04,5.07,0.91
c1.29,0.73,2.43,1.81,3.29,3.1c0.39-0.33,0.79-0.66,1.2-0.97c1.19-0.87,2.38-1.68,3.97-2.08c0.96-0.26,2-0.18,2.92,0.22
c0.95,0.41,1.74,1.26,2.09,2.26c0.54,1.52,0.36,3.24-0.52,4.86c-0.69,1.3-1.76,2.4-3.1,3.18l-0.85,0.5l-1.17-1.65l0.77-0.71
c1.76-1.26,2.67-3.56,2.03-5.03c-0.31-0.68-1.09-0.45-1.24-0.4c-0.91,0.3-1.93,1.11-2.67,1.7c-0.67,0.56-1.29,1.16-1.87,1.79
c0.07,0.32,0.12,0.63,0.16,0.95l0.02,0.25c0.05,0.74,0.12,1.66-0.53,2.87c-0.25,0.35-0.75,1.02-1.58,1.2
C215.24,143.98,214.95,144.02,214.66,144.02z M208.68,132.96c1.03,0,1.95,0.24,2.81,0.72c1.08,0.6,2.03,1.49,2.74,2.59
c0.03,0.05,0.07,0.1,0.1,0.15c0,0,0.01-0.01,0.01-0.01c-0.03-0.05-0.06-0.1-0.09-0.15c-0.7-1.1-1.64-2-2.72-2.62
c-1.06-0.63-2.45-0.88-3.66-0.67c-0.39,0.07-0.77,0.17-1.14,0.29c0.37-0.11,0.74-0.19,1.11-0.25
C208.13,132.98,208.41,132.96,208.68,132.96z"/>
</g>
<g>
<path d="M89.53,333.82c2.35-0.84,4.76-1.39,7.16-2.02c2.42-0.51,4.86-0.95,7.32-1.34c4.89-0.75,9.94-0.94,14.86-1.02
c4.91,0.14,9.83,0.12,14.74,0.4l7.37,0.47c2.46,0.28,4.91,0.45,7.37,0.83l0.02,0c0.05,0.01,0.09,0.06,0.08,0.11
c-0.01,0.05-0.05,0.08-0.1,0.08l-29.49,0.1c-9.82-0.17-19.64,0.83-29.3,2.57c-0.05,0.01-0.11-0.03-0.12-0.08
C89.44,333.89,89.48,333.83,89.53,333.82z"/>
<path d="M89.33,335.1l-0.78-0.51l-0.25-1.34l0.88-0.4c1.94-0.7,3.94-1.2,5.87-1.69l1.39-0.35c2.25-0.47,4.66-0.92,7.41-1.36
c5.02-0.77,10.18-0.95,15-1.03c1.78,0.05,3.52,0.08,5.26,0.11c3.13,0.05,6.37,0.11,9.56,0.29l7.38,0.47
c0.89,0.1,1.73,0.18,2.58,0.27c1.6,0.16,3.25,0.32,4.89,0.58l1,0.16l-0.18,2l-0.99,0.08l-29.48,0.1
c-9.15-0.16-18.68,0.68-29.12,2.56L89.33,335.1z"/>
</g>
<g>
<path d="M151.52,368.9c0.88-0.67,1.4-1.45,2-2.23c0.56-0.79,1.19-1.64,1.9-2.42c1.45-1.51,3.16-2.87,5.29-3.48
c-1.16,1.87-2.46,3.35-3.82,4.85c-0.71,0.71-1.38,1.47-2.26,2.15C153.78,368.44,152.64,368.98,151.52,368.9z"/>
<path d="M151.76,369.93c-0.11,0-0.21,0-0.31-0.01l-2.67-0.21l2.13-1.63c0.64-0.49,1.08-1.08,1.55-1.7l0.25-0.34
c0.43-0.61,1.13-1.58,1.96-2.49c1.88-1.97,3.76-3.2,5.76-3.78l2.56-0.74l-1.4,2.26c-1.2,1.94-2.55,3.47-3.93,5l-0.47,0.48
c-0.58,0.6-1.17,1.21-1.93,1.79C154.18,369.44,152.92,369.93,151.76,369.93z"/>
</g>
<g>
<path d="M131.4,374.65c1.22-1.07,2.85-1,4.02-1.03c0.59,0.02,1.16-0.01,1.74-0.03c0.56-0.06,1.16-0.07,1.88-0.38
c-0.07,0.79-0.68,1.51-1.39,1.86c-0.7,0.4-1.48,0.53-2.23,0.55C133.91,375.58,132.83,375.16,131.4,374.65z"/>
<path d="M135.44,376.64c-1.62-0.04-2.76-0.45-4.09-0.93l-1.94-0.69l1.32-1.15c1.4-1.22,3.11-1.25,4.35-1.28l0.31-0.01
c0.59,0.02,1.12,0,1.64-0.02l0.27-0.02c0.46-0.04,0.86-0.08,1.32-0.28l1.59-0.68l-0.17,1.72c-0.11,1.08-0.87,2.13-1.94,2.68
C137.39,376.4,136.5,376.62,135.44,376.64z"/>
</g>
<g>
<path d="M105.66,376.98c1.04-0.79,2.07-0.97,3.11-1c0.52,0.02,1.04,0.06,1.55,0.22c0.26,0.07,0.52,0.17,0.78,0.29
c0.17,0.14,0.37,0.33,0.5,0.13c0.45,0.32-0.26,0.78-0.5,0.85c-0.26,0.12-0.52,0.22-0.78,0.29c-0.52,0.16-1.04,0.2-1.55,0.22
C107.73,377.95,106.7,377.77,105.66,376.98z"/>
<path d="M108.8,379.01c-1.09-0.03-2.43-0.2-3.76-1.21l-1.07-0.82l1.07-0.82c1.33-1.01,2.68-1.18,3.7-1.21
c0.6,0.02,1.24,0.07,1.89,0.27c0.17,0.04,0.35,0.11,0.54,0.18l0.16-0.24l0.87,0.63c0.43,0.31,0.64,0.79,0.55,1.29
c-0.15,0.84-1.06,1.29-1.37,1.38c-0.18,0.09-0.49,0.22-0.8,0.3C109.97,378.94,109.34,378.99,108.8,379.01z"/>
</g>
<g>
<path d="M84.41,369.56c-0.93,0.84-2.14,0.86-3.15,0.51c-1-0.38-1.92-1.17-2.08-2.42c1.23,0.05,1.97,0.27,2.77,0.53
C82.72,368.5,83.43,368.82,84.41,369.56z"/>
<path d="M82.48,371.32c-0.5,0-1.03-0.09-1.55-0.27c-1.58-0.61-2.58-1.79-2.77-3.25L78,366.58l1.22,0.05
c1.4,0.06,2.24,0.31,3.05,0.59c0.85,0.34,1.66,0.69,2.76,1.53l0.98,0.75l-0.91,0.83C84.38,370.98,83.47,371.32,82.48,371.32z"/>
</g>
<g>
<path d="M14.94,147.27c-0.33-0.86,0.14-1.78,0.66-2.41c0.55-0.67,1.15-1.2,1.76-1.77c1.19-1.1,2.89-2.12,4.82-1.89
c0.93,0.1,1.93,0.57,2.54,1.41c0.62,0.82,0.8,1.78,0.93,2.62c0.11,0.84,0.21,1.76-0.09,2.77c-0.2,1.03-1.55,2.16-2.86,1.73
c-1.2-0.37-1.92-1.31-2.15-2.46c-0.17-1.19,0.32-2.16,0.86-2.92c1.17-1.48,2.5-2.45,3.98-3.33c1.45-0.81,3.19-1.6,5.08-1.28
c1.88,0.3,3.5,2.29,2.74,4.24l-0.06,0.15L33,144.18c-0.73,0.31-1.51,0.57-2.38,0.52c-0.86-0.02-1.78-0.63-2.01-1.52
c-0.23-0.86-0.01-1.73,0.44-2.44c0.49-0.72,1.22-1.15,1.96-1.44c1.52-0.53,3-0.73,4.55-0.96c0.78-0.08,1.57-0.11,2.37-0.02
c0.35,0.01,0.94,0.18,1.28,0.4c0.37,0.22,0.7,0.47,1.01,0.73c0.61,0.54,1.16,1.13,1.63,1.83c0.38,0.7,1.04,1.53,0.52,2.85
c-0.34,0.61-0.98,0.92-1.42,0.99c-0.51,0.15-0.91,0.1-1.36,0.13c-0.47-0.08-0.88-0.04-1.42-0.3c-0.48-0.12-1.12-0.76-1.21-1.47
c-0.11-1.4,0.6-2.05,1.09-2.73c0.55-0.67,1.18-1.19,1.82-1.69c1.3-0.98,2.72-1.74,4.24-2.31c1.53-0.56,3.14-0.88,4.78-0.92
c0.84,0.01,1.7,0.02,2.64,0.37c0.93,0.29,1.91,1.26,2.14,2.3c0.14,0.51,0.15,0.98,0.15,1.41c-0.02,0.45,0.02,0.64-0.06,1.3
c-0.19,1.07-0.81,2-1.81,2.53c-0.98,0.5-2.46,0.55-3.34-0.78c-0.39-0.66-0.24-1.54,0.06-2c0.29-0.49,0.63-0.82,0.99-1.1
c1.43-0.9,2.77-1.52,4.15-2.29c1.33-0.76,2.89-1.32,4.58-1.38c1.68-0.09,3.55,0.95,4.02,2.65c0.27,0.83,0.05,1.81-0.5,2.42
c-0.54,0.63-1.23,1.01-1.89,1.37c-0.05,0.03-0.11,0.01-0.14-0.04c-0.02-0.05-0.01-0.1,0.03-0.13c0.61-0.44,1.23-0.89,1.61-1.49
c0.39-0.59,0.44-1.29,0.17-1.88c-0.57-1.23-1.91-1.9-3.25-1.71c-1.34,0.15-2.69,0.76-3.94,1.57c-1.23,0.77-2.61,1.53-3.71,2.28
c-0.23,0.2-0.42,0.43-0.5,0.6c-0.08,0.2-0.03,0.17-0.03,0.17c-0.03,0.01,0.44,0.18,0.74-0.06c0.35-0.18,0.66-0.65,0.71-1.07
c0.02-0.1,0-0.67,0.01-0.97c-0.01-0.33-0.03-0.63-0.1-0.85c-0.15-0.44-0.36-0.67-0.86-0.87c-0.49-0.2-1.17-0.24-1.84-0.24
c-1.39,0.05-2.8,0.26-4.13,0.71c-1.34,0.45-2.64,1.1-3.79,1.92c-0.56,0.42-1.12,0.86-1.55,1.36c-0.43,0.44-0.81,1.12-0.75,1.28
c-0.1,0.02,0.31,0.3,0.98,0.37c0.65,0.06,1.29-0.09,1.34-0.2c0.13-0.11-0.01-0.85-0.35-1.41c-0.33-0.59-0.77-1.16-1.26-1.66
c-0.54-0.51-0.96-0.91-1.63-0.99c-0.7-0.13-1.43-0.15-2.17-0.12c-1.46,0.09-3.02,0.28-4.37,0.72c-0.67,0.24-1.3,0.62-1.68,1.16
c-0.39,0.54-0.56,1.29-0.35,1.9c0.43,1.34,2.22,1.12,3.44,0.46l-0.2,0.21c0.46-1.27-0.89-2.71-2.18-2.76
c-1.39-0.13-2.8,0.59-4.08,1.45c-1.25,0.87-2.58,1.87-3.38,3c-0.39,0.55-0.58,1.19-0.52,1.63c0.04,0.44,0.47,0.99,0.84,1.08
c0.32,0.1,0.65-0.04,0.85-0.59c0.2-0.56,0.18-1.3,0.1-2.07c-0.13-1.54-0.7-2.72-2.12-2.97c-1.38-0.3-2.82,0.39-4.1,1.31
c-0.64,0.47-1.32,0.94-1.88,1.48c-0.54,0.53-1.04,1.21-0.88,1.99c0.01,0.05-0.02,0.11-0.08,0.12
C15.01,147.34,14.96,147.31,14.94,147.27z"/>
<path d="M23.28,150.84c-0.31,0-0.61-0.05-0.91-0.15c-1.48-0.46-2.52-1.64-2.84-3.23c-0.18-1.28,0.16-2.48,1.03-3.72
c0.08-0.1,0.16-0.2,0.24-0.29c-0.68,0.13-1.44,0.5-2.31,1.13l-0.21,0.15c-0.55,0.4-1.12,0.81-1.56,1.23
c-0.44,0.43-0.64,0.79-0.59,1.05l0.2,1l-1.92,0.49l-0.44-0.87c-0.41-1.06-0.11-2.31,0.83-3.44c0.52-0.63,1.08-1.15,1.62-1.66
l0.23-0.21c1.24-1.14,3.22-2.44,5.64-2.16c0.59,0.06,1.16,0.24,1.68,0.5c0.3-0.2,0.6-0.38,0.88-0.55c1.47-0.82,3.2-1.6,5.12-1.48
c0.21-0.11,0.43-0.21,0.66-0.3c1.61-0.56,3.09-0.77,4.65-1c1.12-0.13,1.97-0.13,2.76-0.05c0.41,0.01,1.19,0.21,1.73,0.56
c0,0,0.01,0,0.01,0.01c1.22-0.85,2.55-1.54,3.97-2.07c1.65-0.61,3.37-0.94,5.11-0.98c0.86,0.01,1.9,0.01,3.03,0.44
c0.67,0.2,1.31,0.65,1.82,1.22c1.51-0.8,3.07-1.23,4.64-1.29c2.29-0.14,4.48,1.34,5.05,3.4c0.36,1.11,0.07,2.49-0.73,3.38
c-0.63,0.75-1.44,1.19-2.15,1.57l-0.9,0.49l-1.08-1.74l0.77-0.66c0.55-0.39,1.07-0.78,1.34-1.21c0.2-0.29,0.23-0.61,0.1-0.9
c-0.37-0.78-1.26-1.25-2.17-1.12c-1.08,0.12-2.26,0.6-3.52,1.42c-0.07,0.05-0.14,0.09-0.22,0.13l-0.01,0.36
c0,0.26,0,0.53-0.06,1.01c-0.26,1.48-1.12,2.66-2.35,3.32c-1.43,0.73-3.49,0.69-4.68-1.12c-0.63-1.05-0.44-2.35,0.05-3.12
c0.36-0.62,0.84-1.05,1.21-1.35c0.04-0.03,0.08-0.05,0.11-0.07c-0.09,0-0.16,0-0.22,0c-1.36,0.05-2.65,0.27-3.8,0.66
c-0.83,0.28-1.65,0.64-2.41,1.07l0.17,0.29c0.41,0.7,1.09,1.86,0.44,3.49c-0.59,1.06-1.52,1.52-2.21,1.63
c-0.36,0.12-0.78,0.12-1.12,0.13l-0.46,0.02l-0.12-0.02c-0.11-0.02-0.22-0.03-0.32-0.04c-0.35-0.04-0.78-0.08-1.29-0.31
c-0.82-0.27-1.71-1.17-1.86-2.29c-0.13-1.62,0.55-2.51,1.05-3.16l-2.6,2.67c-0.02,0.41-0.11,0.82-0.26,1.21l-0.16,0.4l-0.45,0.31
c-0.47,0.2-0.97,0.39-1.5,0.52l-2.17,2.24l0.76-2.09c-0.02,0-0.04,0-0.06,0c-1.35-0.03-2.63-1.02-2.95-2.29
c-0.06-0.22-0.1-0.45-0.11-0.69c-0.23,0.14-0.47,0.29-0.72,0.46c-0.15,0.1-0.3,0.21-0.46,0.32c0.17,0.53,0.26,1.06,0.33,1.54
c0.13,1.04,0.22,2.06-0.13,3.21c-0.15,0.76-0.78,1.6-1.63,2.1C24.39,150.68,23.83,150.84,23.28,150.84z M30.29,141.93
c-0.11,0.26-0.15,0.54-0.08,0.74c0.05,0.15,0.1,0.19,0.19,0.22c0.24,0.1,0.65,0.07,1.08-0.05c-0.04-0.09-0.08-0.17-0.12-0.22
C31.1,142.25,30.66,141.96,30.29,141.93z M33.53,140.47c0.13,0.17,0.25,0.35,0.36,0.53c0.1,0.17,0.18,0.34,0.25,0.52l2.38-1.27
c-0.27-0.01-0.54-0.01-0.84,0C34.89,140.29,34.18,140.36,33.53,140.47z M52.73,141.26c0,0.02-0.01,0.04-0.01,0.06
C52.72,141.3,52.73,141.28,52.73,141.26C52.73,141.26,52.73,141.26,52.73,141.26z M48.91,136.87c-1.42,0.03-2.86,0.3-4.24,0.79
c1.29-0.42,2.72-0.65,4.25-0.7c0.76,0,1.59,0.04,2.27,0.32c0.21,0.08,0.39,0.18,0.55,0.28c0.03-0.02,0.06-0.03,0.1-0.05
c-0.19-0.14-0.39-0.25-0.57-0.31C50.41,136.88,49.64,136.87,48.91,136.87z"/>
</g>
<g>
<path d="M164.92,344.62c-0.87-0.88-1.27-2.2-0.5-3.56c0.44-0.63,0.89-0.9,1.2-1.1c0.31-0.22,0.71-0.5,1.11-1.01
c0.39,0.52,0.46,1.27,0.18,1.9c-0.28,0.65-0.68,1.02-0.79,1.27C165.75,342.58,165.57,343.48,164.92,344.62z"/>
<path d="M165.14,346.3l-0.95-0.96c-1.32-1.34-1.58-3.17-0.67-4.79c0.59-0.86,1.17-1.23,1.52-1.44c0.26-0.18,0.57-0.4,0.88-0.79
l0.83-1.06l0.8,1.08c0.61,0.82,0.72,1.98,0.28,2.94c-0.21,0.5-0.49,0.87-0.68,1.12c-0.05,0.07-0.1,0.13-0.13,0.18l-0.12,0.19
c-0.08,0.1-0.21,0.41-0.33,0.7c-0.19,0.46-0.42,1.03-0.78,1.66L165.14,346.3z"/>
</g>
<g>
<path d="M74.9,289.98c-0.51-1.06-0.15-2.14,0.49-2.9c0.33-0.36,0.79-0.69,1.19-0.81c0.39-0.17,0.78-0.13,1.3-0.4
c0.24,0.56-0.03,1.22-0.29,1.59c-0.26,0.42-0.47,0.65-0.7,0.94C76.39,288.94,75.9,289.39,74.9,289.98z"/>
<path d="M74.46,291.42l-0.48-1c-0.63-1.3-0.39-2.8,0.63-4.01c0.52-0.56,1.12-0.96,1.68-1.13c0.15-0.08,0.41-0.13,0.61-0.17
c0.2-0.04,0.34-0.07,0.51-0.15l0.98-0.51l0.44,1.01c0.4,0.92,0.06,1.94-0.39,2.59c-0.21,0.34-0.41,0.58-0.61,0.84l-0.18,0.22
c-0.59,0.63-1.17,1.14-2.22,1.76L74.46,291.42z"/>
</g>
<g>
<path d="M67.17,322.25c-0.86-1.09-1.04-2.32-0.97-3.5c0.12-1.18,0.49-2.36,1.53-3.3c0.51,1.29,0.53,2.37,0.47,3.46
C68.07,320,67.88,321.06,67.17,322.25z"/>
<path d="M67.29,324.05l-0.92-1.16c-0.9-1.13-1.29-2.51-1.19-4.2c0.18-1.74,0.79-3.03,1.86-4l1.09-0.99l0.55,1.37
c0.62,1.54,0.6,2.82,0.54,3.9c-0.12,1.13-0.32,2.4-1.17,3.81L67.29,324.05z"/>
</g>
<g>
<path d="M98.58,275.66c0.47-0.81,0.87-1.04,1.31-1.16c0.46-0.06,0.91,0.01,1.65,0.59c-0.22,0.92-0.74,1.25-1.27,1.38
C99.72,276.54,99.12,276.43,98.58,275.66z"/>
<path d="M100.03,277.5c-0.95,0-1.72-0.43-2.29-1.25l-0.38-0.54l0.33-0.57c0.54-0.93,1.12-1.42,1.94-1.64
c0.96-0.14,1.7,0.1,2.55,0.78l0.51,0.41l-0.15,0.63c-0.27,1.14-0.97,1.88-2.03,2.14C100.35,277.49,100.19,277.5,100.03,277.5z"/>
</g>
<g>
<path d="M131.96,279.26c0.29-0.44,0.8-0.67,1.26-0.68c0.47-0.04,0.9,0.12,1.27,0.3c0.35,0.22,0.65,0.48,0.86,0.83
c0.11,0.17,0.18,0.34,0.29,0.6c0.06,0.25,0.16,0.66-0.13,0.82c-0.21-0.2-0.35-0.12-0.55-0.11c-0.15,0.02-0.38-0.01-0.55-0.05
c-0.37-0.07-0.65-0.22-0.92-0.35C132.94,280.31,132.74,279.97,131.96,279.26z"/>
<path d="M135.34,282.41l-0.35-0.35c-0.32,0.04-0.68-0.05-0.82-0.09c-0.43-0.08-0.8-0.26-1.09-0.41c-0.55-0.31-0.83-0.59-1.15-0.91
c-0.17-0.17-0.37-0.37-0.64-0.61l-0.66-0.59l0.49-0.74c0.46-0.69,1.26-1.13,2.1-1.14c0.54-0.05,1.12,0.09,1.75,0.41
c0.61,0.38,1,0.76,1.27,1.22c0.1,0.16,0.19,0.35,0.32,0.63l0.1,0.26c0.22,0.94,0.01,1.6-0.63,1.95L135.34,282.41z"/>
</g>
<g>
<path d="M149.31,294.64c0.78-0.38,1.26-0.16,1.54,0.16c0.24,0.36,0.33,0.87-0.25,1.53c-0.87,0-1.15-0.1-1.34-0.31
C149.11,295.77,149.08,295.47,149.31,294.64z"/>
<path d="M151.06,297.36h-0.46c-0.96,0-1.61-0.11-2.1-0.65c-0.5-0.77-0.43-1.42-0.18-2.33l0.12-0.45l0.42-0.2
c1.52-0.74,2.44,0.04,2.76,0.41c0.66,0.96,0.53,2-0.25,2.89L151.06,297.36z"/>
</g>
<g>
<path d="M159.54,312.28c1.03,0.06,1.58,0.61,1.93,1.24c0.29,0.65,0.39,1.43-0.19,2.28c-0.94-0.41-1.32-0.87-1.61-1.4
C159.43,313.85,159.3,313.28,159.54,312.28z"/>
<path d="M161.64,317.08l-0.78-0.34c-1.25-0.55-1.75-1.21-2.09-1.84c-0.33-0.76-0.55-1.55-0.23-2.87l0.2-0.83l0.85,0.05
c0.85,0.05,2.02,0.4,2.77,1.77c0.68,1.51,0.24,2.65-0.24,3.35L161.64,317.08z"/>
</g>
<g>
<path d="M73.28,351.98c-0.72-1.1-1.08-1.89-1.45-2.74c-0.34-0.87-0.65-1.67-0.91-2.97c1.34,0.11,2.29,1.1,2.76,2.2
C74.12,349.59,74.15,350.95,73.28,351.98z"/>
<path d="M73.18,353.7l-0.76-1.15c-0.78-1.19-1.17-2.05-1.54-2.89c-0.4-1.01-0.71-1.85-0.97-3.18l-0.27-1.34l1.36,0.12
c1.56,0.13,2.91,1.18,3.62,2.82c0.66,1.68,0.45,3.38-0.56,4.57L73.18,353.7z"/>
</g>
</g>
</svg>